# xmcd
# Track frame offsets:
# 183
# 9435
# 28260
# 37268
# 53028
# 64845
# 75730
# 84468
# 100648
# 121088
# 134795
# 152390
# 168148
#
# Disc length: 2467 seconds
# Revision: 0
# Processed by: cddbd v1.4PL0 Copyright (c) Steve Scherf et al.
# Submitted via: VisiTrax 2.9.5.180 - For more info visit www.synapsa.com
#
DISCID=9d09a10d
DTITLE=Bill Rhyne and The Coronados - Freedom of the Rolling Plains
DYEAR=1992
DGENRE=
TTITLE0=Singing the blues
TTITLE1=You're my friend
TTITLE2=Comfort me
TTITLE3=Texas taoboy
TTITLE4=Cardiac unrest
TTITLE5=Invitation to the blues
TTITLE6=Cold feet
TTITLE7=Christmas letter blues
TTITLE8=Sleepwalk
TTITLE9=Freedom of the rolling plains
TTITLE10=Abilene
TTITLE11=Chuck-a-luck, the sailor
TTITLE12=Postcard from tanzania
EXTD=
EXTT0=
EXTT1=
EXTT2=
EXTT3=
EXTT4=
EXTT5=
EXTT6=
EXTT7=
EXTT8=
EXTT9=
EXTT10=
EXTT11=
EXTT12=
PLAYORDER=
